<svg viewBox="0 0 20 21" xmlns="http://www.w3.org/2000/svg" fill-rule="evenodd" clip-rule="evenodd" stroke-linejoin="round" stroke-miterlimit="2"><g fill="#fff" fill-rule="nonzero"><path d="M16.38 3.296a.809.809 0 00-.808-.809h-2.425V.87H11.53v1.617H9.104V.87H7.487v1.617H5.06V.87H3.444v1.617H1.02a.809.809 0 00-.809.809v1.617h16.17V3.296zm-8.893 7.276h1.617v1.617H7.487v-1.617zM5.06 8.955H3.444V7.338h1.617v1.617zm0 3.234H3.444v-1.617h1.617v1.617zm0 3.235H3.444v-1.617h1.617v1.617zm2.426-8.086h1.617v1.617H7.487V7.338zm4.043 0h1.617v1.617H11.53V7.338zm3.234 2.426c.547 0 1.092.08 1.617.238v-4.28H.21v10.51c0 .447.361.809.808.809h8.323a5.652 5.652 0 015.422-7.277z"/><path d="M15.335 16.794a.814.814 0 01-.827.196l-2.425-.808.511-1.537 1.951.647 2.073-2.072 1.143 1.143-2.426 2.431zm-.571-6.222a4.851 4.851 0 100 9.703 4.851 4.851 0 000-9.703z"/></g></svg>