<svg viewBox="0 0 28 31" xmlns="http://www.w3.org/2000/svg" fill-rule="evenodd" clip-rule="evenodd" stroke-linejoin="round" stroke-miterlimit="2"><path d="M24.955 8.952a.742.742 0 00-.737-.659H3.716a.742.742 0 00-.738.66L.648 29.836a.743.743 0 00.737.823h25.163a.74.74 0 00.738-.823l-2.33-20.885zm-2.505 1.885l1.915 17.28H3.568l1.915-17.28H22.45z" fill="#fff"/><path d="M20.256 13.66V6.739A5.936 5.936 0 0014.322.805 5.936 5.936 0 008.388 6.74v6.92c0 .411 1.37.744 1.703.744.334 0 .605-.326.605-.725V6.927c0-2.395 1.625-4.34 3.626-4.34 2.002 0 3.627 1.945 3.627 4.34v6.751c0 .4.27.725.604.725.334 0 1.703-.333 1.703-.743z" fill="#fff"/><circle cx="219.18" cy="1666.57" r="8.595" fill="#fff" transform="translate(-36.974 -339.995) scale(.21201)"/><circle cx="219.18" cy="1666.57" r="8.595" fill="#fff" transform="translate(-27.452 -339.995) scale(.21201)"/></svg>