<svg viewBox="0 0 19 19" xmlns="http://www.w3.org/2000/svg" fill-rule="evenodd" clip-rule="evenodd" stroke-linejoin="round" stroke-miterlimit="2"><path d="M5.968 17.815a1.07 1.07 0 01-1.073-1.068c0-.59.48-1.068 1.073-1.068a1.07 1.07 0 011.073 1.068c0 .59-.48 1.068-1.073 1.068zm0-2.99c-1.067 0-1.931.86-1.931 1.922 0 1.062.864 1.923 1.931 1.923 1.067 0 1.932-.86 1.932-1.923a1.927 1.927 0 00-1.932-1.923zm8.156 2.99a1.07 1.07 0 01-1.073-1.068c0-.59.48-1.068 1.073-1.068a1.07 1.07 0 011.073 1.068c0 .59-.48 1.068-1.073 1.068zm0-2.99c-1.067 0-1.931.86-1.931 1.922 0 1.062.864 1.923 1.931 1.923 1.067 0 1.932-.86 1.932-1.923a1.927 1.927 0 00-1.932-1.923zm2.554-6.752a1.457 1.457 0 01-1.309 1.132l-8.929.919-1.996-6.025 13.157.192-.923 3.782zm1.46-4.636L4.165 3.244 3.78 2.07A1.974 1.974 0 001.933.745H.495a.428.428 0 100 .854h1.438c.467.01.878.309 1.03.748L5.69 10.53l-.214.491a2.043 2.043 0 00.193 1.859c.357.543.958.878 1.61.897h8.349a.428.428 0 100-.854h-8.35a1.096 1.096 0 01-.9-.513 1.17 1.17 0 01-.108-1.026L6.44 11l9.036-.94a2.357 2.357 0 002.04-1.795l1.03-4.294a.362.362 0 00-.065-.363.537.537 0 00-.343-.171z" fill="#fff" fill-rule="nonzero"/></svg>