<svg viewBox="0 0 24 18" xmlns="http://www.w3.org/2000/svg" fill-rule="evenodd" clip-rule="evenodd" stroke-linejoin="round" stroke-miterlimit="2"><path d="M12.118 3.058c2.436-3.536 7.31-3.536 9.746-1.768 2.445 1.768 2.445 5.305 0 8.84-1.703 2.652-6.087 5.305-9.746 7.073-3.66-1.768-8.052-4.42-9.755-7.073-2.437-3.535-2.437-7.072 0-8.84C4.799-.478 9.68-.478 12.118 3.058z" fill="#fff"/><path d="M12.118 3.058c2.436-3.536 7.31-3.536 9.746-1.768 2.445 1.768 2.445 5.305 0 8.84-1.703 2.652-6.087 5.305-9.746 7.073-3.66-1.768-8.052-4.42-9.755-7.073-2.437-3.535-2.437-7.072 0-8.84C4.799-.478 9.68-.478 12.118 3.058zm-.825.568l.825 1.194.824-1.194C15.025.6 19.192.586 21.284 2.1c2.056 1.494 1.82 4.477-.245 7.464l-.009.013c-1.567 2.442-5.516 4.832-8.912 6.513-3.406-1.681-7.346-4.07-8.913-6.5l-.009-.013c-2.065-3-2.3-5.983-.245-7.477C5.035.587 9.211.6 11.293 3.626z" fill="#ccc"/></svg>