<svg viewBox="0 0 17 17" xmlns="http://www.w3.org/2000/svg" fill-rule="evenodd" clip-rule="evenodd" stroke-linejoin="round" stroke-miterlimit="2"><g fill="#fff" fill-rule="nonzero"><path d="M16.434 7.845L13.92 5.33V2.427a.95.95 0 00-1.9 0V3.43l-1.872-1.872C9.222.634 7.613.635 6.69 1.56L.405 7.845A.951.951 0 001.75 9.189l6.284-6.285a.561.561 0 01.77 0l6.285 6.285a.95.95 0 001.345 0 .95.95 0 000-1.344z"/><path d="M8.75 4.709a.467.467 0 00-.66 0l-5.53 5.526a.467.467 0 00-.136.33v4.032c0 .946.766 1.712 1.712 1.712h2.737v-4.238h3.09v4.238h2.738c.945 0 1.712-.766 1.712-1.712v-4.031a.466.466 0 00-.136-.33L8.75 4.708z"/></g></svg>