<svg viewBox="0 0 24 24" xmlns="http://www.w3.org/2000/svg" fill-rule="evenodd" clip-rule="evenodd" stroke-linejoin="round" stroke-miterlimit="2"><path d="M2.068 2.242C.246 4.139.616 6.155.616 12.278c0 5.085-.889 10.182 3.756 11.382 1.451.374 14.298.374 15.743-.001 1.933-.5 3.508-2.067 3.724-4.801.031-.382.031-12.77 0-13.16-.228-2.913-2.026-4.591-4.385-4.931-.543-.079-.648-.102-3.428-.107C6.176.665 4.013.226 2.068 2.242zM12.234 3.7c-3.514 0-6.856-.312-8.128 2.96-.525 1.353-.45 3.108-.45 5.623 0 2.207-.075 4.28.45 5.621 1.272 3.276 4.638 2.963 8.128 2.963 3.366 0 6.843.35 8.134-2.963.525-1.365.451-3.095.451-5.621 0-3.353.185-5.518-1.445-7.143C17.73 3.494 15.5 3.7 12.234 3.7h.006-.006zm-.766 1.546c7.338-.01 8.27-.827 7.758 10.502-.186 4.007-3.237 3.568-6.986 3.568-6.837 0-7.035-.196-7.035-7.037 0-6.92.538-7.03 6.263-7.035v.002zm.772 2.629a4.41 4.41 0 00-4.41 4.408 4.41 4.41 0 004.41 4.407 4.404 4.404 0 004.404-4.407 4.405 4.405 0 00-4.404-4.408zm0 1.547c1.89 0 2.835 1.43 2.835 2.86 0 1.431-.945 2.862-2.835 2.862-3.786 0-3.792-5.722 0-5.722zm4.577-2.751c-.568 0-1.025.461-1.025 1.03a1.027 1.027 0 102.056 0c0-.569-.463-1.03-1.031-1.03z" fill="#fff"/></svg>