<svg viewBox="0 0 27 27" xmlns="http://www.w3.org/2000/svg" fill-rule="evenodd" clip-rule="evenodd" stroke-linejoin="round" stroke-miterlimit="2"><path d="M89.758 45.122c0 24.785-20.094 44.879-44.879 44.879C20.094 90.001 0 69.907 0 45.122 0 20.337 20.094.243 44.879.243c24.785 0 44.879 20.094 44.879 44.879z" fill="url(#_Linear1)" fill-rule="nonzero" transform="translate(.273 .259) scale(.28774)"/><path d="M13.187 5.088c-3.385 0-6.6-.3-7.827 2.85-.507 1.302-.434 2.992-.434 5.412 0 2.124-.068 4.12.434 5.41 1.225 3.154 4.465 2.852 7.825 2.852 3.241 0 6.584.337 7.827-2.851.508-1.315.433-2.98.433-5.41 0-3.228.178-5.312-1.387-6.876-1.585-1.585-3.729-1.387-6.875-1.387h.004zm-.74 1.49c7.06-.012 7.96-.797 7.463 10.108-.176 3.857-3.112 3.433-6.722 3.433-6.582 0-6.771-.188-6.771-6.773 0-6.66.522-6.765 6.03-6.77v.001zm5.15 1.37a.991.991 0 100 1.983.991.991 0 000-1.982zm-4.41 1.16a4.243 4.243 0 10.002 8.485 4.243 4.243 0 00-.002-8.486zm0 1.488c3.64 0 3.645 5.508 0 5.508-3.64 0-3.645-5.508 0-5.508z" fill="#fff" fill-rule="nonzero"/><defs><linearGradient id="_Linear1" x1="0" y1="0" x2="1" y2="0" gradientUnits="userSpaceOnUse" gradientTransform="rotate(137.129 37.867 24.548) scale(87.2051)"><stop offset="0" stop-color="#ca38a7"/><stop offset=".57" stop-color="#ff5a3f"/><stop offset="1" stop-color="#ffcf00"/></linearGradient></defs></svg>