<svg viewBox="0 0 20 15" xmlns="http://www.w3.org/2000/svg" fill-rule="evenodd" clip-rule="evenodd" stroke-linejoin="round" stroke-miterlimit="2"><path d="M19.615 3.229v8.446l-6.542-4.136 6.542-4.31zM6.752 7.54L.21 11.674V3.229l6.542 4.31zm12.826-5.738c-.09-.581-.57-1.033-1.176-1.033H1.422C.819.77.338 1.221.247 1.802L9.912 8.17l9.666-6.368zm-9.332 7.6a.606.606 0 01-.667 0L7.863 8.271.249 13.087c.093.576.571 1.023 1.174 1.023h16.98c.602 0 1.08-.447 1.173-1.023l-7.614-4.815-1.716 1.13z" fill="#fff" fill-rule="nonzero"/></svg>