<svg viewBox="0 0 15 22" xmlns="http://www.w3.org/2000/svg" fill-rule="evenodd" clip-rule="evenodd" stroke-linejoin="round" stroke-miterlimit="2"><path d="M10.777 21.53h-.06c-.33-.213-.652-.386-.93-.61-2.884-2.324-5.394-4.966-6.997-8.361-.914-1.93-1.476-3.972-1.843-6.068-.172-.993-.27-2-.374-3.004-.098-.916.644-1.616 1.348-2.08C2.573.971 3.33.712 4.101.584c.607-.1 1.087.2 1.341.763.555 1.215 1.027 2.46 1.319 3.766.18.805-.172 1.62-1.004 1.888-.202.066-.397.155-.592.239a1.66 1.66 0 00-.472.275c-.255.23-.36.56-.337.897.165 2.6 1.071 4.848 3.154 6.523.33.268.652.562 1.109.64.757.127 1.221-.604 1.858-.874.622-.262 1.258-.08 1.7.419a40.1 40.1 0 011.267 1.538c.397.512.801 1.015 1.153 1.568.337.53.337 1.097-.075 1.563-.756.853-1.67 1.478-2.802 1.717-.307.063-.621.025-.943.024z" fill="#fff" fill-rule="nonzero"/></svg>