<svg viewBox="0 0 28 29" xmlns="http://www.w3.org/2000/svg" fill-rule="evenodd" clip-rule="evenodd" stroke-linejoin="round" stroke-miterlimit="2"><path d="M20.843 23.435a12.72 12.72 0 01-7.116 2.168C6.663 25.603.939 19.877.939 12.825.939 5.773 6.663.048 13.727.048c7.05 0 12.774 5.725 12.774 12.777a12.75 12.75 0 01-3.636 8.922l4.332 4.339a1.292 1.292 0 010 1.858 1.308 1.308 0 01-1.85 0l-4.504-4.509zM13.727 2.674c5.593 0 10.149 4.549 10.149 10.151 0 5.603-4.556 10.152-10.15 10.152-5.606 0-10.162-4.55-10.162-10.152 0-5.602 4.556-10.151 10.163-10.151z" fill="#fff"/></svg>