<svg viewBox="0 0 28 24" xmlns="http://www.w3.org/2000/svg" fill-rule="evenodd" clip-rule="evenodd" stroke-linejoin="round" stroke-miterlimit="2"><path d="M25.763.713L.59 10.523c-.816.319-.766 1.489.073 1.737l6.397 1.888 2.388 7.576a1.098 1.098 0 001.832.439l3.308-3.378 6.49 4.764c.794.583 1.925.15 2.126-.814l4.298-20.55A1.295 1.295 0 0025.763.713zm-3.156 4.56L10.914 15.616a.627.627 0 00-.208.4l-.45 4.002c-.015.13-.198.148-.237.023l-1.853-5.97a.628.628 0 01.27-.72l13.809-8.564c.317-.197.642.24.362.488z" fill="#fff" fill-rule="nonzero"/></svg>