<svg viewBox="0 0 24 24" xmlns="http://www.w3.org/2000/svg" fill-rule="evenodd" clip-rule="evenodd" stroke-linejoin="round" stroke-miterlimit="2"><path d="M22.828 6.243l-.007-.027c-.548-2.206-3.008-4.572-5.265-5.065l-.025-.005a29.259 29.259 0 00-11.015 0l-.026.005c-2.256.493-4.717 2.859-5.265 5.065l-.006.027c-.67 3.08-.67 6.205 0 9.285l.006.027c.523 2.111 2.805 4.37 4.979 4.99 0 0 .337 1.556.586 3.369.026.159.65-.439 1.377-1.03 1.02-.83 2.23-1.784 2.23-1.784a29.352 29.352 0 007.133-.475l.026-.006c2.257-.492 4.717-2.858 5.265-5.064l.007-.027c.67-3.08.67-6.205 0-9.285zM7.262 5.497c.216.002.42.107.58.297.535.618 1.026 1.268 1.421 1.985.242.441.179.98-.267 1.28-.109.073-.204.158-.306.24a1.237 1.237 0 00-.23.243.673.673 0 00-.045.585c.549 1.496 1.467 2.66 2.97 3.287.243.1.485.217.76.184.465-.054.618-.564.943-.83.319-.261.727-.264 1.07-.047.345.217.676.45 1.008.686.325.23.644.457.943.72.287.254.39.587.23.931-.3.63-.733 1.154-1.358 1.49-.172.093-.376.123-.574.182l-.006.003c-.23-.069-.446-.115-.65-.2-2.091-.867-4.016-1.987-5.54-3.704-.866-.976-1.548-2.078-2.122-3.245a23.375 23.375 0 01-.733-1.699c-.217-.52.095-1.058.427-1.451.312-.368.714-.65 1.14-.857a.784.784 0 01.332-.08h.007zm7.113 11.188c-.044 0-.082.015.026.048v-.001c.102-.03.038-.047-.02-.047h-.006zm-3.13-11.827c2.703.105 4.922 1.914 5.4 4.597.083.46.108.932.146 1.4.013.197-.095.384-.306.386-.223.003-.318-.18-.337-.378-.026-.389-.045-.78-.102-1.166-.28-2.04-1.906-3.726-3.933-4.088-.306-.054-.619-.069-.931-.101-.191-.02-.453-.032-.49-.275-.04-.204.133-.366.324-.377.058-.003.109 0 .16 0a66.828 66.828 0 01.07.002zm.25 1.46h.018c.631.036 1.237.171 1.792.467 1.14.601 1.784 1.551 1.976 2.818.006.058.025.114.025.172l.032.473c-.006.034-.006.114-.025.19-.077.274-.491.309-.587.032-.032-.083-.032-.176-.032-.265-.006-.58-.127-1.159-.42-1.663a3.074 3.074 0 00-1.3-1.218 3.704 3.704 0 00-1.034-.318c-.159-.025-.312-.04-.471-.063-.191-.026-.293-.147-.28-.334a.292.292 0 01.305-.292zm3.837 3.853v.048c0 .022 0 .04.006.029l-.006-.077zm-1.747.01c-.198-.014-.306-.137-.325-.332-.02-.147-.032-.295-.064-.438-.07-.28-.216-.54-.452-.712a1.244 1.244 0 00-.376-.178c-.166-.049-.338-.035-.504-.077-.185-.044-.287-.191-.255-.362a.324.324 0 01.344-.264c1.065.076 1.823.625 1.932 1.874a.921.921 0 01-.007.265c-.032.136-.127.207-.223.222l-.019.002c.006 0 .013 0 .02-.002l-.07.001.05.001h-.02a.355.355 0 01-.03 0z" fill="#fff" fill-rule="nonzero"/></svg>