<svg viewBox="0 0 25 24" xmlns="http://www.w3.org/2000/svg" fill-rule="evenodd" clip-rule="evenodd" stroke-linejoin="round" stroke-miterlimit="2"><path d="M.753 23.94l1.63-5.793a11.594 11.594 0 01-1.6-5.893C.783 5.841 6 .624 12.413.624c6.413 0 11.63 5.217 11.63 11.63 0 6.414-5.217 11.631-11.63 11.631a11.62 11.62 0 01-5.686-1.483L.753 23.94zm6.28-3.654l.355.218a9.64 9.64 0 005.025 1.408c5.326 0 9.658-4.332 9.658-9.658 0-5.325-4.332-9.658-9.658-9.658-5.325 0-9.658 4.333-9.658 9.658 0 1.856.528 3.658 1.525 5.211l.24.373-.94 3.337 3.453-.889z" fill="#fff" fill-rule="nonzero"/><path d="M9.146 6.841L8.391 6.8a.913.913 0 00-.648.221c-.366.318-.952.932-1.131 1.733-.268 1.194.146 2.655 1.218 4.117 1.072 1.461 3.069 3.8 6.6 4.798 1.139.322 2.034.105 2.725-.337.547-.35.924-.912 1.06-1.547l.12-.562a.39.39 0 00-.218-.438l-2.55-1.175a.391.391 0 00-.474.116l-1.001 1.298a.287.287 0 01-.323.096c-.685-.241-2.982-1.203-4.242-3.63a.288.288 0 01.036-.324l.957-1.107a.39.39 0 00.064-.409l-1.1-2.572a.39.39 0 00-.338-.237z" fill="#fff" fill-rule="nonzero"/></svg>