<svg viewBox="0 0 250 76" xmlns="http://www.w3.org/2000/svg" fill-rule="evenodd" clip-rule="evenodd" stroke-linejoin="round" stroke-miterlimit="2"><g font-family="'Roboto-Bold','Roboto'" font-weight="700" font-size="193.333"><text x="1596.16" y="1157.17" fill="#fff" transform="matrix(.25746 0 0 .33021 -413.985 -307.469)">K</text><text x="1724.68" y="1157.17" fill="#ef4137" transform="matrix(.25746 0 0 .33021 -413.985 -307.469)">E<tspan x="1839.23" y="1157.17">E</tspan></text><text x="1953.78" y="1157.17" fill="#fff" transform="matrix(.25746 0 0 .33021 -413.985 -307.469)">P<tspan x="2084.29px 2208.94px 2344.82px 2473.34px" y="1157.17px 1157.17px 1157.17px 1157.17px">SAKE</tspan></text></g><path d="M73.513.72c8.277 0 14.995 5.686 14.995 12.693S81.79 26.107 73.513 26.107c-3.79 0-14.951-.148-14.951-.148s-.044-8.748-.044-12.546c0-7.007 6.718-12.694 14.995-12.694zm0 1.998c7.092 0 13 4.691 13 10.695 0 6.004-5.908 10.695-13 10.695-2.788 0-9.593-.081-12.965-.126-.008-2.802-.034-7.9-.034-10.57 0-6.003 5.907-10.694 12.999-10.694z" fill="#ef4137"/><path d="M45.884.72c-8.277 0-14.995 5.686-14.995 12.693s6.718 12.694 14.995 12.694c3.79 0 14.951-.148 14.951-.148s.044-8.748.044-12.546C60.879 6.406 54.16.719 45.884.719zm0 1.998c7.092 0 13 4.691 13 10.695 0 2.67-.027 7.767-.036 10.57-3.371.044-10.176.125-12.964.125-7.092 0-13-4.691-13-10.695 0-6.004 5.908-10.695 13-10.695z" fill="#ef4137"/></svg>